<svg version="1.1" id="Layer_1" xmlns="http://www.w3.org/2000/svg" xmlns:xlink="http://www.w3.org/1999/xlink" x="0px" y="0px"
	 width="100%" viewBox="0 0 640 640" enable-background="new 0 0 640 640" xml:space="preserve">
<path fill="#000000" opacity="1.000000" stroke="none" 
	d="
M442.204529,542.995239 
	C433.248352,542.676514 425.073242,540.136780 416.141022,539.161499 
	C417.007690,542.545715 419.451782,544.102844 421.341827,545.943909 
	C433.990051,558.264221 446.650330,570.574402 459.478485,582.706238 
	C462.796906,585.844543 463.307281,588.322693 460.141907,591.914246 
	C456.174835,596.415527 452.231140,600.895569 447.821381,604.984741 
	C445.144958,607.466614 443.206726,607.223450 440.663971,604.712463 
	C425.254547,589.495911 409.753937,574.371216 394.226440,559.274780 
	C356.840210,522.926514 319.420471,486.612610 282.018158,450.280853 
	C267.561218,436.237671 253.187149,422.107819 238.605804,408.195099 
	C235.494965,405.226868 235.194595,402.750092 238.053375,399.755005 
	C242.077850,395.538513 246.191833,391.405914 250.157242,387.135010 
	C253.082184,383.984650 255.612396,384.281860 258.580261,387.214111 
	C270.548706,399.038910 282.639099,410.740326 294.681519,422.490295 
	C295.830048,423.610962 296.754272,425.053284 299.081757,425.483093 
	C298.515381,417.998901 296.231171,411.204163 295.247101,404.187500 
	C290.269501,368.695374 296.049469,335.078033 313.134796,303.735138 
	C319.844025,291.427155 321.720551,278.498352 323.078003,265.057739 
	C325.377228,242.292328 320.486389,220.847900 310.473267,200.757477 
	C291.851990,163.395447 261.838867,139.582031 221.187241,129.953461 
	C187.788086,122.042686 155.929276,127.314026 126.237747,144.252258 
	C108.492378,154.375534 93.795868,168.131500 83.024796,185.661636 
	C80.415077,189.909012 78.290459,190.568970 73.990540,187.841492 
	C66.828773,183.298706 59.261887,179.385803 51.796272,175.335419 
	C48.979946,173.807480 48.415279,172.198318 50.217697,169.374680 
	C71.513779,136.012695 100.570862,112.496986 138.235153,99.931358 
	C163.302689,91.568298 188.993362,89.629158 215.144333,92.899757 
	C216.106781,93.020126 217.086349,93.003609 218.123795,93.054077 
	C218.646500,90.499069 216.640808,89.666092 215.473480,88.503746 
	C201.782150,74.870972 188.021133,61.308224 174.296051,47.709293 
	C169.843002,43.297173 169.774033,42.633110 174.176361,38.027058 
	C177.741882,34.296532 181.634140,30.878786 185.210068,27.157597 
	C188.415619,23.821854 190.801025,23.975706 194.186707,27.400728 
	C215.503250,48.965012 237.011993,70.340019 258.533234,91.700981 
	C274.490082,107.538963 291.077484,122.792351 306.769196,138.827148 
	C333.446106,166.087296 360.345917,193.123184 387.199158,220.206909 
	C390.130768,223.163696 393.036255,226.169937 396.195587,228.870392 
	C399.062286,231.320694 398.712250,233.448425 396.557617,236.098953 
	C392.649963,240.905945 388.142731,245.072327 383.555908,249.200424 
	C380.765442,251.711777 378.842682,251.151535 376.423340,248.613922 
	C370.678467,242.588150 364.689667,236.794479 358.774353,230.932327 
	C358.206787,230.369904 357.463440,229.984894 356.572968,229.356003 
	C355.057556,231.358856 355.911407,233.254456 356.195496,235.107056 
	C361.563812,270.112030 354.999756,303.086456 338.447021,334.052979 
	C328.848175,352.010345 327.472534,371.221344 328.604614,390.707794 
	C329.646576,408.642334 334.765259,425.749603 343.456543,441.613342 
	C359.631500,471.136627 383.679108,491.770599 415.588501,502.078613 
	C471.733215,520.215637 530.597778,496.402191 559.727173,446.996002 
	C562.208618,442.787262 564.374939,442.206177 568.369263,444.708618 
	C574.291321,448.418884 580.408752,451.832397 586.560059,455.155609 
	C589.621094,456.809235 589.787048,458.567200 588.406555,461.610077 
	C576.600159,487.633636 556.943359,506.155334 532.947021,520.794861 
	C512.649109,533.178040 490.593597,539.982971 467.146545,542.673767 
	C459.021759,543.606079 450.839386,543.161621 442.204529,542.995239 
z"/>
</svg>